<svg class="fill-[#190044] dark:fill-white" width="484.38" height="170" viewBox="0 0 484.38 170.08">
  <defs>
    <linearGradient id="linear-gradient" x1="47.35" y1="103.09" x2="124.86" y2="103.09" gradientUnits="userSpaceOnUse">
      <stop offset="0" stop-color="#48eaff"></stop>
      <stop offset="1" stop-color="#28ccff"></stop>
    </linearGradient>
    <linearGradient id="linear-gradient-2" x1="79.81" y1="66.99" x2="157.32" y2="66.99" gradientUnits="userSpaceOnUse">
      <stop offset="0" stop-color="#2d8cfe"></stop>
      <stop offset="1" stop-color="#2db4fe"></stop>
    </linearGradient>
    <linearGradient id="linear-gradient-3" x1="79.81" y1="85" x2="124.86" y2="85" gradientUnits="userSpaceOnUse">
      <stop offset="0" stop-color="#00c6ff"></stop>
      <stop offset="1" stop-color="#0038ff"></stop>
    </linearGradient>
  </defs>
  <title>Lendo</title>
  <path d="M219.09,103.71v15.22H178.58V49.77h15.81v53.94Z"></path>
  <path
    d="M250,107.07a12.93,12.93,0,0,0,9.49-3.75l11.85,6.81c-4.84,6.72-12.15,10.18-21.54,10.18-16.89,0-27.36-11.36-27.36-26.08s10.67-26.09,26.28-26.09c14.42,0,25.09,11.17,25.09,26.09a29.16,29.16,0,0,1-.59,5.93H238.12C240,105.29,244.54,107.07,250,107.07Zm9.09-18c-1.58-5.73-6-7.81-10.47-7.81-5.63,0-9.39,2.77-10.77,7.81Z">
  </path>
  <path
    d="M324.64,88.6v30.33H309.82V90.77c0-6.13-3.85-9-8.59-9-5.44,0-9.19,3.16-9.19,10.18v27H277.22V69.53H292v4.64c2.66-3.65,7.6-6,14.13-6C316.14,68.14,324.64,75.26,324.64,88.6Z">
  </path>
  <path
    d="M381.23,49.77v69.16H366.41v-4.65c-3.26,3.76-8.1,6-14.72,6-12.95,0-23.62-11.36-23.62-26.08s10.67-26.09,23.62-26.09c6.62,0,11.46,2.28,14.72,6V49.77ZM366.41,94.23c0-7.41-4.94-12.06-11.76-12.06s-11.76,4.65-11.76,12.06,4.94,12,11.76,12S366.41,101.64,366.41,94.23Z">
  </path>
  <path
    d="M384.66,94.23a26.18,26.18,0,1,1,26.18,26.08A25.9,25.9,0,0,1,384.66,94.23Zm37.55,0c0-7-4.95-11.66-11.37-11.66s-11.36,4.64-11.36,11.66,4.94,11.66,11.36,11.66S422.21,101.24,422.21,94.23Z">
  </path>
  <path fill="url(#linear-gradient)"
    d="M77.28,155.91a20.31,20.31,0,0,1-14.36-34.68L73,111.13a4.57,4.57,0,0,0,0-6.47L53.3,84.94A20.32,20.32,0,0,1,82,56.21l36.9,36.9a21.41,21.41,0,0,1,0,29.58L91.65,150A20.25,20.25,0,0,1,77.28,155.91Z">
  </path>
  <path fill="url(#linear-gradient-2)"
    d="M137,119.81a20.25,20.25,0,0,1-14.37-5.94L85.75,77a20.36,20.36,0,0,1-5.93-14.79,20.36,20.36,0,0,1,5.93-14.79L113,20.11a20.32,20.32,0,0,1,28.73,28.74L131.66,59a4.59,4.59,0,0,0,0,6.47l19.72,19.72A20.31,20.31,0,0,1,137,119.81Z">
  </path>
  <path fill="url(#linear-gradient-3)"
    d="M119.63,93.85l-25.4-25.4c-.13-.13-.22-.28-.34-.42L82,56.17c-.36-.36-.73-.68-1.1-1a20.28,20.28,0,0,0-1.11,7,20.38,20.38,0,0,0,5.22,14l25.4,25.4a4.46,4.46,0,0,1,.34.42l11.87,11.86c.35.36.73.67,1.1,1a21.7,21.7,0,0,0-4.12-21Z">
  </path>
</svg>